{"title":"Dave (1993) Kevin Kline [Widescreen Opt.MULTISUBS]","uid":4456714,"size":743004649,"categoryP":"video","categoryS":"movies","magnet":"?xt=urn:btih:f30f2f459a5feed2db224b7808f2396912afd5b9&amp;dn=Dave+%281993%29+Kevin+Kline+%5BWidescreen+Opt.MULTISUBS%5D&amp;tr=udp%3A%2F%2Ftracker.openbittorrent.com%3A80&amp;tr=udp%3A%2F%2Fopen.demonii.com%3A1337&amp;tr=udp%3A%2F%2Ftracker.coppersurfer.tk%3A6969&amp;tr=udp%3A%2F%2Fexodus.desync.com%3A6969","seeders":7,"leechers":1,"uploader":"Kuthumi","files":-1,"time":1224517483,"description":" &lt;a href=&quot;http://www.imdb.com/title/tt0106673/&quot; rel=&quot;nofollow&quot; target=&quot;_NEW&quot;&gt;http://www.imdb.com/title/tt0106673/&lt;/a&gt;\n\nWith Kevin Kline (A Fish called Wanda)\nSigourney Weaver (Copycat)\nFrank Langella (Doomsday Gun)\n\nOptional subtitles in separate idx/sub files:\nCzech, Danish, Dutch, English, Finnish, French, German, Greek, Hebrew, Hrvatski, Hungarian, Italian, Norwegian, Polish, Portugese, Spanish, Swedish. \n\nFeel-good comedy where Kevin Kline as the American President's look-alike has to take his place when the real President gets seriously ill.\n\nWidescreen 720x384 pixels, 2-pass DVDrip, XviD, really good stereo AC3.\nBurn tested, runs well in both my standalone DivX players.\n\n\nFormat/Info                      : Audio Video Interleave\nFile size                        : 696 MiB\nDuration                         : 1h 45mn\nOveral bit rate                  : 923 Kbps\n\nVideo\nFormat                           : MPEG-4 Visual\nFormat profile                   : Streaming Video@L1\nFormat settings, BVOP            : Yes\nFormat settings, QPel            : No\nFormat settings, GMC             : No warppoints\nFormat settings, Matrix          : Default\nMuxing mode                      : Packet Bitstream\nCodec ID                         : XVID\nCodec ID/Hint                    : XviD\nDuration                         : 1h 45mn\nBit rate                         : 785 Kbps\nWidth                            : 720 pixels\nHeight                           : 384 pixels\nDisplay aspect ratio             : 1.875\nFrame rate                       : 25.000 fps\nResolution                       : 8 bits\nColorimetry                      : 4:2:0\nScan type                        : Progressive\nBits/(Pixel*Frame)               : 0.114\nStream size                      : 592 MiB\nWriting library                  : XviD 1.2.0.dev47 (UTC 2006-11-01)\n\nAudio\nFormat                           : MPEG Audio\nFormat version                   : Version 1\nFormat profile                   : Layer 3\nCodec ID                         : 55\nCodec ID/Hint                    : MP3\nDuration                         : 1h 45mn\nBit rate mode                    : Constant\nBit rate                         : 128 Kbps\nMinimum bit rate                 : 128 Kbps\nChannel(s)                       : 2 channels\nSampling rate                    : 48.0 KHz\nResolution                       : 16 bits\nStream size                      : 96.5 MiB\nWriting library                  : LAME3.97 \nEncoding settings                : CBR\n\nSource: PAL native (note that PAL/NTSC will give no problems for avi \nfiles).","torrent":{"xt":"urn:btih:f30f2f459a5feed2db224b7808f2396912afd5b9","amp;dn":"Dave+%281993%29+Kevin+Kline+%5BWidescreen+Opt.MULTISUBS%5D","amp;tr":["udp%3A%2F%2Ftracker.openbittorrent.com%3A80","udp%3A%2F%2Fopen.demonii.com%3A1337","udp%3A%2F%2Ftracker.coppersurfer.tk%3A6969","udp%3A%2F%2Fexodus.desync.com%3A6969"],"infoHash":"f30f2f459a5feed2db224b7808f2396912afd5b9","infoHashBuffer":{"type":"Buffer","data":[243,15,47,69,154,95,238,210,219,34,75,120,8,242,57,105,18,175,213,185]},"announce":[],"urlList":[]}}